<?xml version="1.0" encoding="iso-8859-1"?>
<!-- Generator: Adobe Illustrator 19.0.0, SVG Export Plug-In . SVG Version: 6.00 Build 0)  -->
<svg version="1.1" id="Capa_1" xmlns="http://www.w3.org/2000/svg" xmlns:xlink="http://www.w3.org/1999/xlink" x="0px" y="0px"
	 viewBox="0 0 512 512" style="enable-background:new 0 0 512 512;" xml:space="preserve">
<path style="fill:#303C42;" d="M508.875,493.792L353.089,338.005c32.358-35.927,52.245-83.296,52.245-135.339
	C405.333,90.917,314.417,0,202.667,0S0,90.917,0,202.667s90.917,202.667,202.667,202.667c52.043,0,99.411-19.887,135.339-52.245
	l155.786,155.786c2.083,2.083,4.813,3.125,7.542,3.125s5.458-1.042,7.542-3.125C513.042,504.708,513.042,497.958,508.875,493.792z"
	/>
<path style="fill:#BBDEFB;" d="M21.333,202.667c0-99.99,81.354-181.333,181.333-181.333S384,102.677,384,202.667
	S302.646,384,202.667,384S21.333,302.656,21.333,202.667z"/>
<path style="opacity:0.1;enable-background:new    ;" d="M42.667,224c0-99.99,81.354-181.333,181.333-181.333
	c44.57,0,85.375,16.236,116.984,43.012c-33.29-39.297-82.909-64.345-138.318-64.345c-99.979,0-181.333,81.344-181.333,181.333
	c0,55.415,25.052,105.034,64.349,138.322C58.905,309.379,42.667,268.574,42.667,224z"/>
<circle style="opacity:0.4;fill:#FFFFFF;enable-background:new    ;" cx="224" cy="266.667" r="53.333"/>
<linearGradient id="SVGID_1_" gradientUnits="userSpaceOnUse" x1="-45.8125" y1="640.9991" x2="-19.8881" y2="628.9099" gradientTransform="matrix(21.3333 0 0 -21.3333 996.3334 13791.667)">
	<stop  offset="0" style="stop-color:#FFFFFF;stop-opacity:0.2"/>
	<stop  offset="1" style="stop-color:#FFFFFF;stop-opacity:0"/>
</linearGradient>
<path style="fill:url(#SVGID_1_);" d="M508.875,493.792L353.089,338.005c32.358-35.927,52.245-83.296,52.245-135.339
	C405.333,90.917,314.417,0,202.667,0S0,90.917,0,202.667s90.917,202.667,202.667,202.667c52.043,0,99.411-19.887,135.339-52.245
	l155.786,155.786c2.083,2.083,4.813,3.125,7.542,3.125s5.458-1.042,7.542-3.125C513.042,504.708,513.042,497.958,508.875,493.792z"
	/>
<g>
</g>
<g>
</g>
<g>
</g>
<g>
</g>
<g>
</g>
<g>
</g>
<g>
</g>
<g>
</g>
<g>
</g>
<g>
</g>
<g>
</g>
<g>
</g>
<g>
</g>
<g>
</g>
<g>
</g>
</svg>
